# xmcd
#
# Track frame offsets: 
#        150
#        11115
#        23304
#        53720
#        67328
#        78397
#        96241
#        109491
#        120476
#        130686
#
# Disc length: 1923 seconds
#
# Revision: 0
# Processed by: cddbd v1.5.2PL0 Copyright (c) Steve Scherf et al.
# Submitted via: ExactAudioCopy v1.0b3
#
DISCID=7f07810a
DTITLE=Little Milton - Grits Ain't Groceries
DYEAR=1969
DGENRE=Blues
TTITLE0=Just A Little Bit
TTITLE1=Grits Ain't Groceries
TTITLE2=I Can't Quit You Baby
TTITLE3=I'll Always Love You
TTITLE4=Twenty Three Hours
TTITLE5=Spring
TTITLE6=Steal Away
TTITLE7=You're The One
TTITLE8=So Blue Without You
TTITLE9=Did You Ever Love A Woman
EXTD=
EXTT0=
EXTT1=
EXTT2=
EXTT3=
EXTT4=
EXTT5=
EXTT6=
EXTT7=
EXTT8=
EXTT9=
PLAYORDER=
